<svg width="3804" height="1195" viewBox="0 0 3804 1195" fill="none" xmlns="http://www.w3.org/2000/svg">
<g clip-path="url(#clip0_251_103)">
<rect width="3804" height="1195" fill="white"/>
<path fill-rule="evenodd" clip-rule="evenodd" d="M893.982 642.199C912.693 640.307 929.413 653.904 931.359 672.599L947.256 825.231C949.211 844.002 935.539 860.788 916.755 862.693L356.651 919.368C337.936 921.26 321.22 907.666 319.273 888.968L303.376 736.336C301.418 717.569 315.089 700.779 333.877 698.878L893.982 642.199ZM721.698 883.077L857.46 868.952L812.095 955.136C806.423 965.905 791.62 967.445 783.852 958.074L721.698 883.077Z" fill="#232426"/>
<path fill-rule="evenodd" clip-rule="evenodd" d="M868.443 884.718L918.471 879.657C946.653 876.805 967.16 851.623 964.229 823.468L948.331 670.833C945.408 642.791 920.331 622.398 892.259 625.239L332.159 681.914C303.976 684.766 283.469 709.948 286.405 738.103L302.302 890.734C305.221 918.78 330.298 939.173 358.37 936.332L713.865 900.361L770.712 968.948C786.244 987.692 815.854 984.612 827.194 963.074L868.443 884.718ZM916.751 862.693C935.54 860.788 949.211 844.002 947.257 825.231L931.359 672.599C929.413 653.905 912.693 640.307 893.978 642.199L333.878 698.878C315.09 700.779 301.418 717.569 303.372 736.336L319.27 888.972C321.22 907.667 337.936 921.26 356.651 919.368L916.751 862.693ZM857.46 868.957L812.091 955.136C806.423 965.906 791.616 967.445 783.852 958.074L721.694 883.077L857.46 868.957Z" fill="#232426"/>
<path fill-rule="evenodd" clip-rule="evenodd" d="M898.325 474.151C917.153 474.985 931.741 490.913 930.91 509.729L924.123 663.037C923.288 681.853 907.35 696.431 888.521 695.596L546.277 680.467L498.281 745.943C491.088 755.756 476.216 755.1 469.916 744.687L427.896 675.233L343.062 671.481C324.233 670.65 309.645 654.723 310.48 635.907L317.267 482.598C318.099 463.782 334.037 449.204 352.865 450.035L898.325 474.151Z" fill="#232426"/>
<path fill-rule="evenodd" clip-rule="evenodd" d="M899.078 457.117C927.321 458.365 949.203 482.258 947.954 510.482L941.167 663.791C939.918 692.015 916.009 713.882 887.766 712.634L554.644 697.906L512.049 756.02C497.655 775.65 467.912 774.333 455.315 753.511L418.019 691.865L342.307 688.518C314.064 687.266 292.182 663.377 293.435 635.153L300.222 481.845C301.471 453.621 325.376 431.754 353.619 433.002L899.078 457.117ZM427.895 675.233L469.915 744.687C476.216 755.1 491.087 755.756 498.284 745.943L546.276 680.467L888.521 695.596C907.349 696.431 923.287 681.853 924.122 663.037L930.909 509.729C931.741 490.913 917.153 474.985 898.324 474.155L352.865 450.039C334.036 449.205 318.098 463.783 317.267 482.599L310.48 635.907C309.645 654.723 324.232 670.65 343.061 671.481L427.895 675.233Z" fill="#232426"/>
<path fill-rule="evenodd" clip-rule="evenodd" d="M877.307 345.153C896.156 345.153 911.433 360.42 911.433 379.252V515.097C911.433 533.93 896.156 549.196 877.307 549.196H534.207L492.937 611.058C486.182 621.183 471.298 621.183 464.544 611.058L423.274 549.196H380.127C361.278 549.196 346.001 533.93 346.001 515.097V379.252C346.001 360.42 361.278 345.153 380.127 345.153H877.307Z" fill="#232426"/>
<path fill-rule="evenodd" clip-rule="evenodd" d="M877.311 328.099C905.578 328.099 928.498 351.003 928.498 379.252V515.097C928.498 543.346 905.578 566.25 877.311 566.25H543.337L507.136 620.518C493.63 640.765 463.855 640.765 450.35 620.518L414.148 566.25H380.127C351.856 566.25 328.94 543.346 328.94 515.097V379.252C328.94 351.003 351.856 328.099 380.127 328.099H877.311ZM423.278 549.196L464.544 611.058C471.299 621.183 486.187 621.183 492.941 611.058L534.207 549.196H877.311C896.156 549.196 911.433 533.93 911.433 515.097V379.252C911.433 360.42 896.156 345.149 877.311 345.149H380.127C361.282 345.149 346.001 360.42 346.001 379.252V515.097C346.001 533.93 361.282 549.196 380.127 549.196H423.278Z" fill="#232426"/>
<path fill-rule="evenodd" clip-rule="evenodd" d="M843.184 311.05C862.029 311.05 877.31 326.317 877.31 345.153V480.994C877.31 499.831 862.029 515.097 843.184 515.097H500.08L458.814 576.959C452.059 587.08 437.171 587.08 430.421 576.959L389.151 515.097H346C327.155 515.097 311.874 499.831 311.874 480.994V345.153C311.874 326.317 327.155 311.05 346 311.05H843.184Z" fill="#F8446F"/>
<path fill-rule="evenodd" clip-rule="evenodd" d="M843.184 294C871.451 294 894.371 316.9 894.371 345.153V480.994C894.371 509.247 871.451 532.147 843.184 532.147H509.21L473.009 586.415C459.503 606.662 429.728 606.662 416.223 586.415L380.021 532.147H346C317.729 532.147 294.813 509.247 294.813 480.994V345.153C294.813 316.9 317.729 294 346 294H843.184ZM389.151 515.097L430.417 576.959C437.172 587.08 452.06 587.08 458.814 576.959L500.08 515.097H843.184C862.029 515.097 877.306 499.83 877.306 480.994V345.153C877.306 326.316 862.029 311.05 843.184 311.05H346C327.155 311.05 311.874 326.316 311.874 345.153V480.994C311.874 499.83 327.155 515.097 346 515.097H389.151Z" fill="#232426"/>
<path fill-rule="evenodd" clip-rule="evenodd" d="M715.421 353.775C715.421 349.067 711.602 345.25 706.891 345.25H352.69C347.978 345.25 344.159 349.067 344.159 353.775C344.159 358.483 347.978 362.3 352.69 362.3H706.891C711.602 362.3 715.421 358.483 715.421 353.775Z" fill="#232426"/>
<path fill-rule="evenodd" clip-rule="evenodd" d="M864.203 440.052C883.031 440.882 897.619 456.81 896.784 475.626L889.997 628.934C889.166 647.75 873.228 662.328 854.399 661.497L512.15 646.364L464.158 711.84C456.962 721.657 442.09 720.997 435.794 710.588L393.774 641.129L308.939 637.382C290.111 636.547 275.523 620.62 276.354 601.804L283.141 448.495C283.976 429.679 299.914 415.101 318.743 415.936L864.203 440.052Z" fill="white"/>
<path fill-rule="evenodd" clip-rule="evenodd" d="M864.953 423.018C893.196 424.266 915.078 448.155 913.829 476.379L907.042 629.688C905.793 657.912 881.884 679.779 853.641 678.531L520.519 663.803L477.924 721.916C463.53 741.547 433.787 740.23 421.19 719.408L383.894 657.762L308.182 654.415C279.939 653.167 258.057 629.274 259.31 601.05L266.097 447.742C267.346 419.518 291.251 397.651 319.494 398.903L864.953 423.018ZM393.77 641.13L435.79 710.584C442.091 720.997 456.962 721.657 464.159 711.84L512.151 646.364L854.396 661.498C873.224 662.328 889.162 647.75 889.997 628.934L896.784 475.626C897.616 456.81 883.028 440.882 864.199 440.052L318.739 415.936C299.911 415.101 283.973 429.679 283.142 448.496L276.355 601.804C275.52 620.62 290.107 636.547 308.936 637.382L393.77 641.13Z" fill="#232426"/>
<path fill-rule="evenodd" clip-rule="evenodd" d="M766.393 499.887C766.604 495.183 762.955 491.204 758.248 490.994L336.213 472.336C331.506 472.129 327.52 475.771 327.313 480.475C327.103 485.179 330.752 489.162 335.459 489.369L757.494 508.027C762.201 508.238 766.187 504.591 766.393 499.887Z" fill="#232426"/>
<path fill-rule="evenodd" clip-rule="evenodd" d="M625.717 555.776C625.924 551.072 622.279 547.09 617.572 546.883L336.213 534.444C331.505 534.234 327.524 537.88 327.313 542.584C327.106 547.288 330.751 551.267 335.458 551.478L616.818 563.916C621.525 564.123 625.511 560.48 625.717 555.776Z" fill="#232426"/>
<path fill-rule="evenodd" clip-rule="evenodd" d="M859.856 608.1C878.571 606.204 895.287 619.801 897.233 638.496L913.135 791.132C915.089 809.899 901.418 826.689 882.629 828.59L322.529 885.265C303.814 887.161 287.094 873.563 285.148 854.869L269.25 702.233C267.296 683.466 280.968 666.676 299.756 664.775L859.856 608.1Z" fill="#F8D044"/>
<path fill-rule="evenodd" clip-rule="evenodd" d="M834.317 850.614L884.349 845.554C912.531 842.701 933.034 817.52 930.103 789.365L914.206 636.733C911.286 608.687 886.206 588.295 858.137 591.135L298.033 647.811C269.855 650.663 249.348 675.844 252.279 704L268.176 856.635C271.1 884.677 296.176 905.069 324.245 902.229L679.743 866.258L736.586 934.849C752.118 953.588 781.732 950.509 793.068 928.974L834.317 850.614ZM882.63 828.589C901.418 826.689 915.089 809.899 913.131 791.131L897.234 638.496C895.288 619.801 878.571 606.204 859.856 608.1L299.752 664.775C280.968 666.679 267.296 683.466 269.251 702.237L285.148 854.869C287.094 873.563 303.815 887.161 322.526 885.265L882.63 828.589ZM823.338 834.853L777.969 921.033C772.301 931.802 757.494 933.342 749.726 923.97L687.572 848.973L823.338 834.853Z" fill="#232426"/>
<path fill-rule="evenodd" clip-rule="evenodd" d="M757.803 702.444C757.377 697.756 753.23 694.3 748.535 694.726L327.817 732.881C323.122 733.306 319.663 737.455 320.089 742.143C320.515 746.83 324.667 750.291 329.358 749.861L750.079 711.706C754.77 711.281 758.229 707.136 757.803 702.444Z" fill="#232426"/>
<path fill-rule="evenodd" clip-rule="evenodd" d="M625.913 776.707C625.487 772.019 621.335 768.563 616.644 768.989L336.164 794.425C331.473 794.851 328.015 798.996 328.441 803.688C328.866 808.375 333.014 811.831 337.705 811.406L618.185 785.97C622.88 785.544 626.338 781.399 625.913 776.707Z" fill="#232426"/>
<path d="M996.754 871.979L684.978 903.44L701.307 1065.04L1013.08 1033.58L996.754 871.979Z" fill="white"/>
<path d="M1231.69 737.51H1367.39V803H1149.09V391.18H1231.69V737.51ZM1420.48 437.2C1405.93 437.2 1393.74 432.677 1383.9 423.63C1374.46 414.19 1369.74 402.587 1369.74 388.82C1369.74 375.053 1374.46 363.647 1383.9 354.6C1393.74 345.16 1405.93 340.44 1420.48 340.44C1435.04 340.44 1447.03 345.16 1456.47 354.6C1466.31 363.647 1471.22 375.053 1471.22 388.82C1471.22 402.587 1466.31 414.19 1456.47 423.63C1447.03 432.677 1435.04 437.2 1420.48 437.2ZM1461.19 476.14V803H1378.59V476.14H1461.19ZM1682.63 471.42C1721.57 471.42 1753.04 483.81 1777.03 508.59C1801.03 532.977 1813.02 567.197 1813.02 611.25V803H1730.42V622.46C1730.42 596.5 1723.93 576.637 1710.95 562.87C1697.97 548.71 1680.27 541.63 1657.85 541.63C1635.04 541.63 1616.95 548.71 1603.57 562.87C1590.59 576.637 1584.1 596.5 1584.1 622.46V803H1501.5V476.14H1584.1V516.85C1595.12 502.69 1609.08 491.677 1625.99 483.81C1643.3 475.55 1662.18 471.42 1682.63 471.42ZM2043.79 803L1932.87 663.76V803H1850.27V366.4H1932.87V614.79L2042.61 476.14H2149.99L2006.03 640.16L2151.17 803H2043.79ZM2295.71 807.13C2267 807.13 2241.04 802.213 2217.83 792.38C2195.02 782.547 2176.93 768.387 2163.55 749.9C2150.18 731.413 2143.3 709.583 2142.9 684.41H2231.4C2232.58 701.323 2238.48 714.697 2249.1 724.53C2260.12 734.363 2275.06 739.28 2293.94 739.28C2313.22 739.28 2328.36 734.757 2339.37 725.71C2350.39 716.27 2355.89 704.077 2355.89 689.13C2355.89 676.937 2352.16 666.907 2344.68 659.04C2337.21 651.173 2327.77 645.077 2316.36 640.75C2305.35 636.03 2290.01 630.917 2270.34 625.41C2243.6 617.543 2221.77 609.873 2204.85 602.4C2188.33 594.533 2173.98 582.93 2161.78 567.59C2149.98 551.857 2144.08 531.01 2144.08 505.05C2144.08 480.663 2150.18 459.423 2162.37 441.33C2174.57 423.237 2191.68 409.47 2213.7 400.03C2235.73 390.197 2260.9 385.28 2289.22 385.28C2331.7 385.28 2366.12 395.703 2392.47 416.55C2419.22 437.003 2433.97 465.717 2436.72 502.69H2345.86C2345.08 488.53 2338.98 476.927 2327.57 467.88C2316.56 458.44 2301.81 453.72 2283.32 453.72C2267.2 453.72 2254.22 457.85 2244.38 466.11C2234.94 474.37 2230.22 486.367 2230.22 502.1C2230.22 513.113 2233.76 522.357 2240.84 529.83C2248.32 536.91 2257.36 542.81 2267.98 547.53C2279 551.857 2294.34 556.97 2314 562.87C2340.75 570.737 2362.58 578.603 2379.49 586.47C2396.41 594.337 2410.96 606.137 2423.15 621.87C2435.35 637.603 2441.44 658.253 2441.44 683.82C2441.44 705.847 2435.74 726.3 2424.33 745.18C2412.93 764.06 2396.21 779.203 2374.18 790.61C2352.16 801.623 2326 807.13 2295.71 807.13ZM2655.83 471.42C2680.61 471.42 2702.64 476.927 2721.91 487.94C2741.19 498.56 2756.13 514.49 2766.75 535.73C2777.77 556.577 2783.27 581.75 2783.27 611.25V803H2700.67V622.46C2700.67 596.5 2694.18 576.637 2681.2 562.87C2668.22 548.71 2650.52 541.63 2628.1 541.63C2605.29 541.63 2587.2 548.71 2573.82 562.87C2560.84 576.637 2554.35 596.5 2554.35 622.46V803H2471.75V366.4H2554.35V516.85C2564.97 502.69 2579.13 491.677 2596.83 483.81C2614.53 475.55 2634.2 471.42 2655.83 471.42ZM2965.66 808.31C2934.2 808.31 2905.88 801.427 2880.7 787.66C2855.53 773.5 2835.67 753.637 2821.11 728.07C2806.95 702.503 2799.87 673.003 2799.87 639.57C2799.87 606.137 2807.15 576.637 2821.7 551.07C2836.65 525.503 2856.91 505.837 2882.47 492.07C2908.04 477.91 2936.56 470.83 2968.02 470.83C2999.49 470.83 3028.01 477.91 3053.57 492.07C3079.14 505.837 3099.2 525.503 3113.75 551.07C3128.7 576.637 3136.17 606.137 3136.17 639.57C3136.17 673.003 3128.5 702.503 3113.16 728.07C3098.22 753.637 3077.76 773.5 3051.8 787.66C3026.24 801.427 2997.52 808.31 2965.66 808.31ZM2965.66 736.33C2980.61 736.33 2994.57 732.79 3007.55 725.71C3020.93 718.237 3031.55 707.223 3039.41 692.67C3047.28 678.117 3051.21 660.417 3051.21 639.57C3051.21 608.497 3042.95 584.7 3026.43 568.18C3010.31 551.267 2990.44 542.81 2966.84 542.81C2943.24 542.81 2923.38 551.267 2907.25 568.18C2891.52 584.7 2883.65 608.497 2883.65 639.57C2883.65 670.643 2891.32 694.637 2906.66 711.55C2922.4 728.07 2942.06 736.33 2965.66 736.33ZM3238.06 523.34C3248.68 508.393 3263.24 496.003 3281.72 486.17C3300.6 475.943 3322.04 470.83 3346.03 470.83C3373.96 470.83 3399.13 477.713 3421.55 491.48C3444.37 505.247 3462.26 524.913 3475.24 550.48C3488.62 575.653 3495.3 604.957 3495.3 638.39C3495.3 671.823 3488.62 701.52 3475.24 727.48C3462.26 753.047 3444.37 772.91 3421.55 787.07C3399.13 801.23 3373.96 808.31 3346.03 808.31C3322.04 808.31 3300.8 803.393 3282.31 793.56C3264.22 783.727 3249.47 771.337 3238.06 756.39V958.76H3155.46V476.14H3238.06V523.34ZM3410.93 638.39C3410.93 618.723 3406.8 601.81 3398.54 587.65C3390.68 573.097 3380.06 562.083 3366.68 554.61C3353.7 547.137 3339.54 543.4 3324.2 543.4C3309.26 543.4 3295.1 547.333 3281.72 555.2C3268.74 562.673 3258.12 573.687 3249.86 588.24C3242 602.793 3238.06 619.903 3238.06 639.57C3238.06 659.237 3242 676.347 3249.86 690.9C3258.12 705.453 3268.74 716.663 3281.72 724.53C3295.1 732.003 3309.26 735.74 3324.2 735.74C3339.54 735.74 3353.7 731.807 3366.68 723.94C3380.06 716.073 3390.68 704.863 3398.54 690.31C3406.8 675.757 3410.93 658.45 3410.93 638.39Z" fill="black"/>
</g>
<defs>
<clipPath id="clip0_251_103">
<rect width="3804" height="1195" fill="white"/>
</clipPath>
</defs>
</svg>
