<svg width="3804" height="756" viewBox="0 0 3804 756" fill="none" xmlns="http://www.w3.org/2000/svg">
<g clip-path="url(#clip0_251_103)">
<mask id="mask0_251_103" style="mask-type:luminance" maskUnits="userSpaceOnUse" x="0" y="0" width="3804" height="756">
<path d="M3804 0H0V756H3804V0Z" fill="white"/>
</mask>
<g mask="url(#mask0_251_103)">
<path fill-rule="evenodd" clip-rule="evenodd" d="M712.982 410.199C731.693 408.307 748.413 421.904 750.359 440.599L766.256 593.231C768.211 612.002 754.539 628.788 735.755 630.693L175.651 687.368C156.936 689.26 140.22 675.666 138.273 656.968L122.376 504.336C120.418 485.569 134.089 468.779 152.877 466.878L712.982 410.199ZM540.698 651.077L676.46 636.952L631.095 723.136C625.423 733.905 610.62 735.445 602.852 726.074L540.698 651.077Z" fill="#232426"/>
<path fill-rule="evenodd" clip-rule="evenodd" d="M687.443 652.718L737.471 647.657C765.653 644.805 786.16 619.623 783.229 591.468L767.331 438.833C764.408 410.791 739.331 390.398 711.259 393.239L151.159 449.914C122.976 452.766 102.469 477.948 105.405 506.103L121.302 658.734C124.221 686.78 149.298 707.173 177.37 704.332L532.865 668.361L589.712 736.948C605.244 755.692 634.854 752.612 646.194 731.074L687.443 652.718ZM735.751 630.693C754.54 628.788 768.211 612.002 766.257 593.231L750.359 440.599C748.413 421.905 731.693 408.307 712.978 410.199L152.878 466.878C134.09 468.779 120.418 485.569 122.372 504.336L138.27 656.972C140.22 675.667 156.936 689.26 175.651 687.368L735.751 630.693ZM676.46 636.957L631.091 723.136C625.423 733.906 610.616 735.445 602.852 726.074L540.694 651.077L676.46 636.957Z" fill="#232426"/>
<path fill-rule="evenodd" clip-rule="evenodd" d="M717.325 242.151C736.153 242.985 750.741 258.913 749.91 277.729L743.123 431.037C742.288 449.853 726.35 464.431 707.521 463.596L365.277 448.467L317.281 513.943C310.088 523.756 295.216 523.1 288.916 512.687L246.896 443.233L162.062 439.481C143.233 438.65 128.645 422.723 129.48 403.907L136.267 250.598C137.099 231.782 153.037 217.204 171.865 218.035L717.325 242.151Z" fill="#232426"/>
<path fill-rule="evenodd" clip-rule="evenodd" d="M718.078 225.117C746.321 226.365 768.203 250.258 766.954 278.482L760.167 431.791C758.918 460.015 735.009 481.882 706.766 480.634L373.644 465.906L331.049 524.02C316.655 543.65 286.912 542.333 274.315 521.511L237.019 459.865L161.307 456.518C133.064 455.266 111.182 431.377 112.435 403.153L119.222 249.845C120.471 221.621 144.376 199.754 172.619 201.002L718.078 225.117ZM246.895 443.233L288.915 512.687C295.216 523.1 310.087 523.756 317.284 513.943L365.276 448.467L707.521 463.596C726.349 464.431 742.287 449.853 743.122 431.037L749.909 277.729C750.741 258.913 736.153 242.985 717.324 242.155L171.865 218.039C153.036 217.205 137.098 231.783 136.267 250.599L129.48 403.907C128.645 422.723 143.232 438.65 162.061 439.481L246.895 443.233Z" fill="#232426"/>
<path fill-rule="evenodd" clip-rule="evenodd" d="M696.307 113.153C715.156 113.153 730.433 128.42 730.433 147.252V283.097C730.433 301.93 715.156 317.196 696.307 317.196H353.207L311.937 379.058C305.182 389.183 290.298 389.183 283.544 379.058L242.274 317.196H199.127C180.278 317.196 165.001 301.93 165.001 283.097V147.252C165.001 128.42 180.278 113.153 199.127 113.153H696.307Z" fill="#232426"/>
<path fill-rule="evenodd" clip-rule="evenodd" d="M696.311 96.0991C724.578 96.0991 747.498 119.003 747.498 147.252V283.097C747.498 311.346 724.578 334.25 696.311 334.25H362.337L326.136 388.518C312.63 408.765 282.855 408.765 269.35 388.518L233.148 334.25H199.127C170.856 334.25 147.94 311.346 147.94 283.097V147.252C147.94 119.003 170.856 96.0991 199.127 96.0991H696.311ZM242.278 317.196L283.544 379.058C290.299 389.183 305.187 389.183 311.941 379.058L353.207 317.196H696.311C715.156 317.196 730.433 301.93 730.433 283.097V147.252C730.433 128.42 715.156 113.149 696.311 113.149H199.127C180.282 113.149 165.001 128.42 165.001 147.252V283.097C165.001 301.93 180.282 317.196 199.127 317.196H242.278Z" fill="#232426"/>
<path fill-rule="evenodd" clip-rule="evenodd" d="M662.184 79.0498C681.029 79.0498 696.31 94.3166 696.31 113.153V248.994C696.31 267.831 681.029 283.097 662.184 283.097H319.08L277.814 344.959C271.059 355.08 256.171 355.08 249.421 344.959L208.151 283.097H165C146.155 283.097 130.874 267.831 130.874 248.994V113.153C130.874 94.3166 146.155 79.0498 165 79.0498H662.184Z" fill="#F8446F"/>
<path fill-rule="evenodd" clip-rule="evenodd" d="M662.184 62C690.451 62 713.371 84.9002 713.371 113.153V248.994C713.371 277.247 690.451 300.147 662.184 300.147H328.21L292.009 354.415C278.503 374.662 248.728 374.662 235.223 354.415L199.021 300.147H165C136.729 300.147 113.813 277.247 113.813 248.994V113.153C113.813 84.9002 136.729 62 165 62H662.184ZM208.151 283.097L249.417 344.959C256.172 355.08 271.06 355.08 277.814 344.959L319.08 283.097H662.184C681.029 283.097 696.306 267.83 696.306 248.994V113.153C696.306 94.3164 681.029 79.0495 662.184 79.0495H165C146.155 79.0495 130.874 94.3164 130.874 113.153V248.994C130.874 267.83 146.155 283.097 165 283.097H208.151Z" fill="#232426"/>
<path fill-rule="evenodd" clip-rule="evenodd" d="M534.421 121.775C534.421 117.067 530.602 113.25 525.891 113.25H171.69C166.978 113.25 163.159 117.067 163.159 121.775C163.159 126.483 166.978 130.3 171.69 130.3H525.891C530.602 130.3 534.421 126.483 534.421 121.775Z" fill="#232426"/>
<path fill-rule="evenodd" clip-rule="evenodd" d="M683.203 208.052C702.031 208.882 716.619 224.81 715.784 243.626L708.997 396.934C708.166 415.75 692.228 430.328 673.399 429.497L331.15 414.364L283.158 479.84C275.962 489.657 261.09 488.997 254.794 478.588L212.774 409.129L127.939 405.382C109.111 404.547 94.523 388.62 95.3541 369.804L102.141 216.495C102.976 197.679 118.914 183.101 137.743 183.936L683.203 208.052Z" fill="white"/>
<path fill-rule="evenodd" clip-rule="evenodd" d="M683.953 191.018C712.196 192.266 734.078 216.155 732.829 244.379L726.042 397.688C724.793 425.912 700.884 447.779 672.641 446.531L339.519 431.803L296.924 489.916C282.53 509.547 252.787 508.23 240.19 487.408L202.894 425.762L127.182 422.415C98.9388 421.167 77.0572 397.274 78.31 369.05L85.0971 215.742C86.3458 187.518 110.251 165.651 138.494 166.903L683.953 191.018ZM212.77 409.13L254.79 478.584C261.091 488.997 275.962 489.657 283.159 479.84L331.151 414.364L673.396 429.498C692.224 430.328 708.162 415.75 708.997 396.934L715.784 243.626C716.616 224.81 702.028 208.882 683.199 208.052L137.739 183.936C118.911 183.101 102.973 197.679 102.142 216.496L95.3547 369.804C94.5195 388.62 109.107 404.547 127.936 405.382L212.77 409.13Z" fill="#232426"/>
<path fill-rule="evenodd" clip-rule="evenodd" d="M585.393 267.887C585.604 263.183 581.955 259.204 577.248 258.994L155.213 240.336C150.506 240.129 146.52 243.771 146.313 248.475C146.103 253.179 149.752 257.162 154.459 257.369L576.494 276.027C581.201 276.238 585.187 272.591 585.393 267.887Z" fill="#232426"/>
<path fill-rule="evenodd" clip-rule="evenodd" d="M444.717 323.776C444.924 319.072 441.279 315.09 436.572 314.883L155.213 302.444C150.505 302.234 146.524 305.88 146.313 310.584C146.106 315.288 149.751 319.267 154.458 319.478L435.818 331.916C440.525 332.123 444.511 328.48 444.717 323.776Z" fill="#232426"/>
<path fill-rule="evenodd" clip-rule="evenodd" d="M678.856 376.1C697.571 374.204 714.287 387.801 716.233 406.496L732.135 559.132C734.089 577.899 720.418 594.689 701.629 596.59L141.529 653.265C122.814 655.161 106.094 641.563 104.148 622.869L88.2504 470.233C86.2962 451.466 99.9677 434.676 118.756 432.775L678.856 376.1Z" fill="#F8D044"/>
<path fill-rule="evenodd" clip-rule="evenodd" d="M653.317 618.614L703.349 613.554C731.531 610.701 752.034 585.52 749.103 557.365L733.206 404.733C730.286 376.687 705.206 356.295 677.137 359.135L117.033 415.811C88.8548 418.663 68.3476 443.844 71.2789 472L87.1763 624.635C90.0995 652.677 115.176 673.069 143.245 670.229L498.743 634.258L555.586 702.849C571.118 721.588 600.732 718.509 612.068 696.974L653.317 618.614ZM701.63 596.589C720.418 594.689 734.089 577.899 732.131 559.131L716.234 406.496C714.288 387.801 697.571 374.204 678.856 376.1L118.752 432.775C99.9679 434.679 86.2965 451.466 88.2507 470.237L104.148 622.869C106.094 641.563 122.815 655.161 141.526 653.265L701.63 596.589ZM642.338 602.853L596.969 689.033C591.301 699.802 576.494 701.342 568.726 691.97L506.572 616.973L642.338 602.853Z" fill="#232426"/>
<path fill-rule="evenodd" clip-rule="evenodd" d="M576.803 470.444C576.377 465.756 572.23 462.3 567.535 462.726L146.817 500.881C142.122 501.306 138.663 505.455 139.089 510.143C139.515 514.83 143.667 518.291 148.358 517.861L569.079 479.706C573.77 479.281 577.229 475.136 576.803 470.444Z" fill="#232426"/>
<path fill-rule="evenodd" clip-rule="evenodd" d="M444.913 544.707C444.487 540.019 440.335 536.563 435.644 536.989L155.164 562.425C150.473 562.851 147.015 566.996 147.441 571.688C147.866 576.375 152.014 579.831 156.705 579.406L437.185 553.97C441.88 553.544 445.338 549.399 444.913 544.707Z" fill="#232426"/>
<path d="M815.754 639.979L503.978 671.44L520.307 833.044L832.083 801.582L815.754 639.979Z" fill="white"/>
<path d="M1050.69 505.51H1186.39V571H968.094V159.18H1050.69V505.51ZM1239.48 205.2C1224.93 205.2 1212.74 200.677 1202.9 191.63C1193.46 182.19 1188.74 170.587 1188.74 156.82C1188.74 143.053 1193.46 131.647 1202.9 122.6C1212.74 113.16 1224.93 108.44 1239.48 108.44C1254.04 108.44 1266.03 113.16 1275.47 122.6C1285.31 131.647 1290.22 143.053 1290.22 156.82C1290.22 170.587 1285.31 182.19 1275.47 191.63C1266.03 200.677 1254.04 205.2 1239.48 205.2ZM1280.19 244.14V571H1197.59V244.14H1280.19ZM1501.63 239.42C1540.57 239.42 1572.04 251.81 1596.03 276.59C1620.03 300.977 1632.02 335.197 1632.02 379.25V571H1549.42V390.46C1549.42 364.5 1542.93 344.637 1529.95 330.87C1516.97 316.71 1499.27 309.63 1476.85 309.63C1454.04 309.63 1435.95 316.71 1422.57 330.87C1409.59 344.637 1403.1 364.5 1403.1 390.46V571H1320.5V244.14H1403.1V284.85C1414.12 270.69 1428.08 259.677 1444.99 251.81C1462.3 243.55 1481.18 239.42 1501.63 239.42ZM1862.79 571L1751.87 431.76V571H1669.27V134.4H1751.87V382.79L1861.61 244.14H1968.99L1825.03 408.16L1970.17 571H1862.79ZM2114.71 575.13C2086 575.13 2060.04 570.213 2036.83 560.38C2014.02 550.547 1995.93 536.387 1982.55 517.9C1969.18 499.413 1962.3 477.583 1961.9 452.41H2050.4C2051.58 469.323 2057.48 482.697 2068.1 492.53C2079.12 502.363 2094.06 507.28 2112.94 507.28C2132.22 507.28 2147.36 502.757 2158.37 493.71C2169.39 484.27 2174.89 472.077 2174.89 457.13C2174.89 444.937 2171.16 434.907 2163.68 427.04C2156.21 419.173 2146.77 413.077 2135.36 408.75C2124.35 404.03 2109.01 398.917 2089.34 393.41C2062.6 385.543 2040.77 377.873 2023.85 370.4C2007.33 362.533 1992.98 350.93 1980.78 335.59C1968.98 319.857 1963.08 299.01 1963.08 273.05C1963.08 248.663 1969.18 227.423 1981.37 209.33C1993.57 191.237 2010.68 177.47 2032.7 168.03C2054.73 158.197 2079.9 153.28 2108.22 153.28C2150.7 153.28 2185.12 163.703 2211.47 184.55C2238.22 205.003 2252.97 233.717 2255.72 270.69H2164.86C2164.08 256.53 2157.98 244.927 2146.57 235.88C2135.56 226.44 2120.81 221.72 2102.32 221.72C2086.2 221.72 2073.22 225.85 2063.38 234.11C2053.94 242.37 2049.22 254.367 2049.22 270.1C2049.22 281.113 2052.76 290.357 2059.84 297.83C2067.32 304.91 2076.36 310.81 2086.98 315.53C2098 319.857 2113.34 324.97 2133 330.87C2159.75 338.737 2181.58 346.603 2198.49 354.47C2215.41 362.337 2229.96 374.137 2242.15 389.87C2254.35 405.603 2260.44 426.253 2260.44 451.82C2260.44 473.847 2254.74 494.3 2243.33 513.18C2231.93 532.06 2215.21 547.203 2193.18 558.61C2171.16 569.623 2145 575.13 2114.71 575.13ZM2474.83 239.42C2499.61 239.42 2521.64 244.927 2540.91 255.94C2560.19 266.56 2575.13 282.49 2585.75 303.73C2596.77 324.577 2602.27 349.75 2602.27 379.25V571H2519.67V390.46C2519.67 364.5 2513.18 344.637 2500.2 330.87C2487.22 316.71 2469.52 309.63 2447.1 309.63C2424.29 309.63 2406.2 316.71 2392.82 330.87C2379.84 344.637 2373.35 364.5 2373.35 390.46V571H2290.75V134.4H2373.35V284.85C2383.97 270.69 2398.13 259.677 2415.83 251.81C2433.53 243.55 2453.2 239.42 2474.83 239.42ZM2784.66 576.31C2753.2 576.31 2724.88 569.427 2699.7 555.66C2674.53 541.5 2654.67 521.637 2640.11 496.07C2625.95 470.503 2618.87 441.003 2618.87 407.57C2618.87 374.137 2626.15 344.637 2640.7 319.07C2655.65 293.503 2675.91 273.837 2701.47 260.07C2727.04 245.91 2755.56 238.83 2787.02 238.83C2818.49 238.83 2847.01 245.91 2872.57 260.07C2898.14 273.837 2918.2 293.503 2932.75 319.07C2947.7 344.637 2955.17 374.137 2955.17 407.57C2955.17 441.003 2947.5 470.503 2932.16 496.07C2917.22 521.637 2896.76 541.5 2870.8 555.66C2845.24 569.427 2816.52 576.31 2784.66 576.31ZM2784.66 504.33C2799.61 504.33 2813.57 500.79 2826.55 493.71C2839.93 486.237 2850.55 475.223 2858.41 460.67C2866.28 446.117 2870.21 428.417 2870.21 407.57C2870.21 376.497 2861.95 352.7 2845.43 336.18C2829.31 319.267 2809.44 310.81 2785.84 310.81C2762.24 310.81 2742.38 319.267 2726.25 336.18C2710.52 352.7 2702.65 376.497 2702.65 407.57C2702.65 438.643 2710.32 462.637 2725.66 479.55C2741.4 496.07 2761.06 504.33 2784.66 504.33ZM3057.06 291.34C3067.68 276.393 3082.24 264.003 3100.72 254.17C3119.6 243.943 3141.04 238.83 3165.03 238.83C3192.96 238.83 3218.13 245.713 3240.55 259.48C3263.37 273.247 3281.26 292.913 3294.24 318.48C3307.62 343.653 3314.3 372.957 3314.3 406.39C3314.3 439.823 3307.62 469.52 3294.24 495.48C3281.26 521.047 3263.37 540.91 3240.55 555.07C3218.13 569.23 3192.96 576.31 3165.03 576.31C3141.04 576.31 3119.8 571.393 3101.31 561.56C3083.22 551.727 3068.47 539.337 3057.06 524.39V726.76H2974.46V244.14H3057.06V291.34ZM3229.93 406.39C3229.93 386.723 3225.8 369.81 3217.54 355.65C3209.68 341.097 3199.06 330.083 3185.68 322.61C3172.7 315.137 3158.54 311.4 3143.2 311.4C3128.26 311.4 3114.1 315.333 3100.72 323.2C3087.74 330.673 3077.12 341.687 3068.86 356.24C3061 370.793 3057.06 387.903 3057.06 407.57C3057.06 427.237 3061 444.347 3068.86 458.9C3077.12 473.453 3087.74 484.663 3100.72 492.53C3114.1 500.003 3128.26 503.74 3143.2 503.74C3158.54 503.74 3172.7 499.807 3185.68 491.94C3199.06 484.073 3209.68 472.863 3217.54 458.31C3225.8 443.757 3229.93 426.45 3229.93 406.39Z" fill="black"/>
</g>
</g>
<defs>
<clipPath id="clip0_251_103">
<rect width="3804" height="756" fill="white"/>
</clipPath>
</defs>
</svg>
